<svg width="836" height="114" viewBox="0 0 836 114" fill="none" xmlns="http://www.w3.org/2000/svg">
<g clip-path="url(#clip0)">
<path d="M0 0V113.4H48.6V81H78V64.8H48.6V48.6H81V32.4H32.4V97.2H16.2V16.2H97.2V97.2H64.8V113.4H113.4V0H0Z" fill="#798398"/>
<path d="M194.9 53.1998V63.3998H173.5V82.9998H162.1V31.7998H200.4V41.9998H173.5V53.2998H194.9V53.1998Z" fill="#798398"/>
<path d="M230 47.3994V57.2994H229.6C228.1 56.1994 226.1 55.5994 223.9 55.5994C217.7 55.5994 215 59.3994 215 67.4994V82.9994H204.9V46.6994H213.3L213.8 52.2994H214C216 48.0994 219.5 45.8994 224.8 45.8994C227 45.9994 229 46.4994 230 47.3994Z" fill="#798398"/>
<path d="M262.1 83L261.8 78.1H261.6C259.2 81.6 255.2 83.7 249.8 83.7C239.5 83.7 232.1 75.8 232.1 64.8C232.1 53.8 239.6 46 249.8 46C255.1 46 259.2 48 261.5 51.5H261.7L262.1 46.8H270.5V83H262.1ZM260.7 64.9C260.7 59 256.9 55 251.5 55C246 55 242.3 59.1 242.3 64.9C242.3 70.7 246.1 74.8 251.5 74.8C256.9 74.8 260.7 70.7 260.7 64.9Z" fill="#798398"/>
<path d="M335 61.4V83H324.9V62.5C324.9 57.5 322.7 54.9 318.8 54.9C314.3 54.9 312 57.9 312 64.3V83H302V62.5C302 57.5 299.8 54.9 295.8 54.9C291.3 54.9 289 57.9 289 63.5V83H278.9V46.7H287.3L287.7 51.6H287.9C290 48 293.6 46 298.5 46C303.4 46 307.3 48.1 309.5 51.9H309.7C311.9 47.9 315.7 46 321.6 46C330.2 46 335 51.5 335 61.4Z" fill="#798398"/>
<path d="M350.7 67.3994C351.8 72.2994 356.2 74.9994 362.5 74.9994C367.7 74.9994 372.2 73.4994 375.1 70.5994H375.5V80.2994C372.5 82.4994 367.6 83.6994 362 83.6994C349.2 83.6994 340.5 75.9994 340.5 64.7994C340.5 53.6994 348.4 45.8994 359.4 45.8994C370.7 45.8994 377.7 52.5994 377.7 63.1994V67.2994H350.7V67.3994ZM350.7 61.2994H368.6C367.9 56.8994 364.5 54.6994 359.7 54.6994C355.4 54.6994 351.7 57.0994 350.7 61.2994Z" fill="#798398"/>
<path d="M424.3 82.9998H412.9V41.9998H397.6V31.7998H439.5V41.9998H424.3V82.9998Z" fill="#798398"/>
<path d="M446.4 67.4004C447.5 72.3004 452 75.0004 458.2 75.0004C463.4 75.0004 467.9 73.5004 470.8 70.6004H471.2V80.3004C468.2 82.5004 463.3 83.7004 457.7 83.7004C444.9 83.7004 436.2 76.0004 436.2 64.8004C436.2 53.7004 444.1 45.9004 455.1 45.9004C466.4 45.9004 473.4 52.6004 473.4 63.2004V67.3004H446.4V67.4004ZM446.4 61.3004H464.3C463.6 56.9004 460.2 54.7004 455.4 54.7004C451.1 54.7004 447.4 57.1004 446.4 61.3004Z" fill="#798398"/>
<path d="M508.5 48.7V59.5H508.1C505.7 56.4 502.5 55 498.3 55C491.7 55 487.7 58.9 487.7 64.9C487.7 70.9 491.7 74.8 498.3 74.8C502.5 74.8 505.8 73.3 508.1 70.2H508.5V81C505.9 82.9 502.3 83.7 497.2 83.7C485.4 83.7 477.5 75.9 477.5 64.8C477.5 53.7 485.5 46 497.3 46C502.3 46 505.7 46.8 508.5 48.7Z" fill="#798398"/>
<path d="M550 61.5V83H539.9V62.7C539.9 57.7 537.4 54.9 533.2 54.9C528.5 54.9 525.7 58.1 525.7 63.7V83H515.6V29H525.7V50H525.9C528.2 47.3 531.6 45.9 535.9 45.9C544.7 46 550 51.7 550 61.5Z" fill="#798398"/>
<path d="M591.9 61.5V83H581.8V62.7C581.8 57.7 579.3 54.9 575.1 54.9C570.4 54.9 567.6 58.1 567.6 63.7V83H557.5V46.7H565.9L566.3 51.9H566.5C568.7 48.1 572.6 46 577.8 46C586.7 46 591.9 51.7 591.9 61.5Z" fill="#798398"/>
<path d="M636.2 64.9C636.2 75.9 628.2 83.8 616.9 83.8C605.5 83.8 597.5 75.9 597.5 64.9C597.5 53.8 605.5 46 616.9 46C628.2 46 636.2 53.8 636.2 64.9ZM607.6 64.9C607.6 70.8 611.4 74.8 616.8 74.8C622.2 74.8 626 70.7 626 64.9C626 59.1 622.2 55 616.8 55C611.4 54.9 607.6 59 607.6 64.9Z" fill="#798398"/>
<path d="M642.4 29H652.5V83H642.4V29Z" fill="#798398"/>
<path d="M697.4 64.9C697.4 75.9 689.4 83.8 678 83.8C666.6 83.8 658.6 75.9 658.6 64.9C658.6 53.8 666.6 46 678 46C689.4 46 697.4 53.8 697.4 64.9ZM668.8 64.9C668.8 70.8 672.6 74.8 678 74.8C683.4 74.8 687.2 70.7 687.2 64.9C687.2 59.1 683.4 55 678 55C672.6 54.9 668.8 59 668.8 64.9Z" fill="#798398"/>
<path d="M739.9 80C739.9 91.3 732.3 98.3 719.7 98.3C713.6 98.3 708.4 96.8 705.1 94.4V84.3H705.5C708.2 87.5 713.1 89.5 718.5 89.5C725.7 89.5 729.8 85.9 729.8 79.5V79.3H729.6C727.1 81.8 723.7 83.2 719.2 83.2C708.9 83.2 701.5 75.6 701.5 64.6C701.5 53.7 709 46 719.2 46C724.6 46 728.6 48 731 51.5H731.2L731.5 46.7H739.9V80V80ZM730.1 64.5C730.1 58.6 726.3 54.9 720.9 54.9C715.4 54.9 711.7 58.7 711.7 64.5C711.7 70.4 715.5 74.1 720.9 74.1C726.3 74.2 730.1 70.4 730.1 64.5Z" fill="#798398"/>
<path d="M759.5 35.4998C759.5 39.1998 756.9 41.6998 753.3 41.6998C749.7 41.6998 747.1 39.1998 747.1 35.4998C747.1 31.8998 749.7 29.2998 753.3 29.2998C756.8 29.2998 759.5 31.8998 759.5 35.4998ZM748.1 46.6998H758.2V82.9998H748.1V46.6998Z" fill="#798398"/>
<path d="M774.7 67.4004C775.8 72.3004 780.3 75.0004 786.5 75.0004C791.7 75.0004 796.2 73.5004 799.1 70.6004H799.5V80.3004C796.5 82.5004 791.6 83.7004 786 83.7004C773.2 83.7004 764.5 76.0004 764.5 64.8004C764.5 53.7004 772.4 45.9004 783.4 45.9004C794.7 45.9004 801.7 52.6004 801.7 63.2004V67.3004H774.7V67.4004ZM774.7 61.3004H792.6C791.9 56.9004 788.5 54.7004 783.7 54.7004C779.4 54.7004 775.7 57.1004 774.7 61.3004Z" fill="#798398"/>
<path d="M832.7 48.3004V57.9004H832.3C829.9 55.5004 826.2 54.3004 821.5 54.3004C817.6 54.3004 815.6 55.5004 815.6 57.7004C815.6 59.3004 816.8 60.0004 821.6 60.3004C831.2 60.9004 835 64.3004 835 71.9004C835 79.3004 829.5 83.7004 820.1 83.7004C814.1 83.7004 809.5 82.6004 806.4 80.5004V70.8004H806.9C809.8 73.9004 814.1 75.4004 819.7 75.4004C823.6 75.4004 825.6 74.2004 825.6 71.9004C825.6 70.0004 824.1 69.2004 819 68.7004C809.8 67.9004 806.2 65.1004 806.2 57.9004C806.2 50.6004 812.1 45.9004 821.3 45.9004C825.7 46.0004 829.9 46.8004 832.7 48.3004Z" fill="#798398"/>
</g>
<defs>
<clipPath id="clip0">
<rect width="835.1" height="113.4" fill="white"/>
</clipPath>
</defs>
</svg>
